<svg xmlns="http://www.w3.org/2000/svg" xmlns:xlink="http://www.w3.org/1999/xlink" width="500" zoomAndPan="magnify" viewBox="0 0 375 74.999997" height="100" preserveAspectRatio="xMidYMid meet" version="1.0"><defs><g/><clipPath id="2dbd8a1a67"><path d="M 0 0 L 75 0 L 75 75 L 0 75 Z M 0 0 " clip-rule="nonzero"/></clipPath><clipPath id="6e465a04e3"><path d="M 37.5 0 C 16.824219 0 0 16.824219 0 37.5 C 0 43.996094 1.664062 50.109375 4.582031 55.445312 C 4.625 55.554688 4.683594 55.660156 4.761719 55.757812 C 11.183594 67.226562 23.449219 75 37.5 75 C 58.175781 75 75 58.179688 75 37.5 C 75 16.824219 58.175781 0 37.5 0 Z M 37.5 2.378906 C 56.867188 2.378906 72.621094 18.132812 72.621094 37.5 C 72.621094 39.984375 72.359375 42.410156 71.867188 44.75 C 71.859375 44.765625 71.851562 44.773438 71.847656 44.789062 C 70.15625 49.421875 65.824219 52.597656 60.9375 52.871094 C 63.945312 48.300781 65.542969 43.023438 65.542969 37.5 C 65.542969 22.035156 52.964844 9.457031 37.5 9.457031 C 22.035156 9.457031 9.457031 22.035156 9.457031 37.5 C 9.457031 40.808594 10.03125 44.039062 11.15625 47.117188 C 9.175781 48.722656 7.386719 50.589844 5.839844 52.699219 C 3.621094 48.097656 2.378906 42.941406 2.378906 37.5 C 2.378906 18.132812 18.132812 2.378906 37.5 2.378906 Z M 22.742188 41.316406 C 22.421875 40.074219 22.25 38.796875 22.25 37.5 C 22.25 29.09375 29.09375 22.25 37.5 22.25 C 45.910156 22.25 52.75 29.09375 52.75 37.5 C 52.75 41.074219 51.496094 44.492188 49.226562 47.222656 C 43.851562 42.808594 37.171875 40.402344 30.128906 40.402344 C 27.601562 40.402344 25.125 40.71875 22.742188 41.316406 Z M 51.605469 49.371094 C 51.554688 49.316406 51.484375 49.292969 51.421875 49.25 C 51.394531 49.214844 51.378906 49.167969 51.34375 49.136719 C 51.230469 49.023438 51.113281 48.917969 50.996094 48.804688 C 53.65625 45.636719 55.125 41.660156 55.125 37.5 C 55.125 27.78125 47.21875 19.875 37.5 19.875 C 27.78125 19.875 19.875 27.78125 19.875 37.5 C 19.875 39.023438 20.078125 40.53125 20.464844 41.988281 C 17.863281 42.863281 15.410156 44.097656 13.148438 45.636719 C 12.277344 43.023438 11.832031 40.292969 11.832031 37.5 C 11.832031 23.347656 23.347656 11.832031 37.5 11.832031 C 51.652344 11.832031 63.167969 23.347656 63.167969 37.5 C 63.167969 43.003906 61.453125 48.25 58.207031 52.671875 C 58.195312 52.683594 58.191406 52.699219 58.179688 52.714844 C 55.710938 52.300781 53.429688 51.15625 51.605469 49.371094 Z M 48.164062 62.667969 C 48.210938 62.71875 48.273438 62.738281 48.324219 62.777344 C 48.351562 62.808594 48.363281 62.847656 48.394531 62.878906 C 50.777344 65.214844 53.914062 66.503906 57.246094 66.53125 C 54.1875 68.617188 50.78125 70.226562 47.140625 71.265625 C 47.117188 71.242188 47.109375 71.210938 47.085938 71.191406 C 43.484375 67.617188 38.703125 65.652344 33.632812 65.652344 C 29.589844 65.652344 25.75 66.898438 22.488281 69.246094 C 19.394531 67.777344 16.542969 65.867188 14.023438 63.597656 C 18.503906 58.652344 24.835938 55.824219 31.53125 55.824219 C 37.804688 55.824219 43.710938 58.253906 48.164062 62.667969 Z M 25.121094 70.363281 C 27.6875 68.839844 30.59375 68.027344 33.632812 68.027344 C 37.605469 68.027344 41.367188 69.414062 44.375 71.941406 C 42.152344 72.386719 39.851562 72.625 37.5 72.625 C 33.144531 72.625 28.972656 71.820312 25.121094 70.363281 Z M 61.148438 63.445312 C 61.136719 63.449219 61.125 63.449219 61.117188 63.453125 C 59.914062 63.921875 58.648438 64.15625 57.347656 64.15625 C 54.605469 64.15625 52.015625 63.101562 50.058594 61.183594 C 50.011719 61.136719 49.953125 61.117188 49.902344 61.082031 C 49.875 61.046875 49.867188 61.011719 49.835938 60.980469 C 44.933594 56.125 38.433594 53.449219 31.53125 53.449219 C 24.1875 53.449219 17.242188 56.535156 12.316406 61.945312 C 10.308594 59.878906 8.554688 57.566406 7.101562 55.054688 C 12.277344 47.359375 20.828125 42.78125 30.128906 42.78125 C 37.5 42.78125 44.4375 45.636719 49.671875 50.824219 C 49.730469 50.878906 49.800781 50.90625 49.863281 50.949219 C 49.894531 50.988281 49.90625 51.035156 49.945312 51.070312 C 52.710938 53.78125 56.371094 55.277344 60.25 55.277344 C 63.671875 55.277344 66.90625 54.074219 69.472656 52.015625 C 67.484375 56.371094 64.644531 60.257812 61.148438 63.445312 Z M 61.148438 63.445312 " clip-rule="nonzero"/></clipPath></defs><g fill="#111827" fill-opacity="1"><g transform="translate(83.192667, 45.268)"><g><path d="M 33.460938 -9.019531 L 40.5625 -9.019531 L 40.5625 -36.964844 C 40.5625 -37.152344 40.375 -37.382812 40.046875 -37.382812 L 33.878906 -37.382812 C 33.691406 -37.382812 33.460938 -37.246094 33.367188 -37.105469 L 20.609375 -9.71875 L 7.195312 -37.105469 C 7.148438 -37.246094 6.871094 -37.382812 6.730469 -37.382812 L 0.46875 -37.382812 C 0.140625 -37.382812 0 -37.152344 0 -36.964844 L 0 -0.421875 C 0 -0.234375 0.140625 0 0.46875 0 L 6.636719 0 C 6.917969 0 7.148438 -0.234375 7.148438 -0.421875 L 7.148438 -21.402344 L 17.289062 -1.777344 C 17.335938 -1.636719 17.617188 -1.496094 17.757812 -1.496094 L 23.503906 -1.496094 C 23.644531 -1.496094 23.878906 -1.636719 23.925781 -1.777344 L 33.460938 -20.886719 Z M 33.460938 -9.019531 "/></g></g></g><g fill="#111827" fill-opacity="1"><g transform="translate(125.807853, 45.268)"><g><path d="M 21.496094 -18.597656 C 21.496094 -20.5625 19.953125 -22.148438 17.992188 -22.148438 C 16.027344 -22.148438 14.488281 -20.5625 14.488281 -18.597656 C 14.488281 -16.683594 16.027344 -15.09375 17.992188 -15.09375 C 19.953125 -15.09375 21.496094 -16.683594 21.496094 -18.597656 Z M 35.984375 -18.738281 C 35.984375 -28.039062 29.953125 -37.382812 18.039062 -37.382812 C 5.933594 -37.382812 0 -28.039062 0 -18.738281 C 0 -9.394531 5.933594 0 18.039062 0 C 29.953125 0 35.984375 -9.394531 35.984375 -18.738281 Z M 28.972656 -18.597656 C 28.972656 -12.570312 25.28125 -6.542969 18.039062 -6.542969 C 10.703125 -6.542969 7.054688 -12.570312 7.054688 -18.597656 C 7.054688 -24.71875 10.703125 -30.796875 18.039062 -30.796875 C 25.28125 -30.796875 28.972656 -24.71875 28.972656 -18.597656 Z M 28.972656 -18.597656 "/></g></g></g><g fill="#111827" fill-opacity="1"><g transform="translate(163.56342, 45.268)"><g><path d="M 25.515625 -0.609375 C 23.179688 -5.792969 20.65625 -10.933594 18.320312 -16.214844 C 22.058594 -17.570312 25.1875 -20.5625 25.1875 -26.261719 C 25.1875 -37.289062 14.671875 -37.382812 12.570312 -37.382812 L 0.46875 -37.382812 C 0.234375 -37.382812 0 -37.152344 0 -36.964844 L 0 -30.609375 L 12.570312 -30.609375 C 13.691406 -30.609375 18.085938 -30.375 18.085938 -26.261719 C 18.085938 -22.148438 14.113281 -21.964844 12.570312 -21.964844 L 0 -21.964844 L 0 -0.421875 C 0 -0.234375 0.234375 0 0.46875 0 L 6.589844 0 C 6.871094 0 7.101562 -0.234375 7.101562 -0.421875 L 7.101562 -15.09375 L 11.121094 -15.09375 L 17.945312 -0.28125 C 17.992188 -0.140625 18.273438 0 18.410156 0 L 25.09375 0 C 25.46875 0 25.65625 -0.28125 25.515625 -0.609375 Z M 25.515625 -0.609375 "/></g></g></g><g fill="#111827" fill-opacity="1"><g transform="translate(190.431544, 45.268)"><g><path d="M 21.496094 -18.597656 C 21.496094 -20.5625 19.953125 -22.148438 17.992188 -22.148438 C 16.027344 -22.148438 14.488281 -20.5625 14.488281 -18.597656 C 14.488281 -16.683594 16.027344 -15.09375 17.992188 -15.09375 C 19.953125 -15.09375 21.496094 -16.683594 21.496094 -18.597656 Z M 35.984375 -18.738281 C 35.984375 -28.039062 29.953125 -37.382812 18.039062 -37.382812 C 5.933594 -37.382812 0 -28.039062 0 -18.738281 C 0 -9.394531 5.933594 0 18.039062 0 C 29.953125 0 35.984375 -9.394531 35.984375 -18.738281 Z M 28.972656 -18.597656 C 28.972656 -12.570312 25.28125 -6.542969 18.039062 -6.542969 C 10.703125 -6.542969 7.054688 -12.570312 7.054688 -18.597656 C 7.054688 -24.71875 10.703125 -30.796875 18.039062 -30.796875 C 25.28125 -30.796875 28.972656 -24.71875 28.972656 -18.597656 Z M 28.972656 -18.597656 "/></g></g></g><g fill="#111827" fill-opacity="1"><g transform="translate(228.18711, 45.268)"><g><path d="M 19.488281 -30.421875 L 14.578125 -16.730469 L 7.289062 -37.105469 C 7.242188 -37.289062 7.054688 -37.382812 6.824219 -37.382812 L 0.46875 -37.382812 C 0.09375 -37.382812 -0.09375 -37.105469 0.046875 -36.824219 L 14.113281 -0.234375 C 14.300781 0.09375 14.859375 0.09375 15 -0.234375 L 26.683594 -30.421875 Z M 19.488281 -30.421875 "/></g></g></g><g fill="#111827" fill-opacity="1"><g transform="translate(256.223423, 45.268)"><g><path d="M 17.757812 -6.960938 L 7.148438 -6.960938 L 7.148438 -15.375 L 21.824219 -15.375 C 22.105469 -15.375 22.335938 -15.609375 22.335938 -15.796875 L 22.335938 -21.730469 C 22.335938 -21.964844 22.105469 -22.148438 21.824219 -22.148438 L 7.148438 -22.148438 L 7.148438 -30.609375 L 17.757812 -30.609375 L 17.757812 -37.382812 L 0.515625 -37.382812 C 0.234375 -37.382812 0 -37.152344 0 -36.964844 L 0 -0.421875 C 0 -0.234375 0.234375 0 0.515625 0 L 17.757812 0 Z M 17.757812 -6.960938 "/></g></g></g><g fill="#111827" fill-opacity="1"><g transform="translate(279.680468, 45.268)"><g><path d="M 30.9375 -37.382812 L 24.90625 -37.382812 C 24.582031 -37.382812 24.347656 -37.152344 24.347656 -36.964844 L 24.347656 -12.617188 L 7.101562 -37.246094 C 7.054688 -37.335938 6.777344 -37.382812 6.683594 -37.382812 L 0.46875 -37.382812 C 0.234375 -37.382812 0 -37.152344 0 -36.964844 L 0 -8.972656 L 7.148438 -8.972656 L 7.148438 -24.765625 L 24.347656 -0.140625 C 24.394531 -0.046875 24.671875 0 24.765625 0 L 30.9375 0 C 31.261719 0 31.449219 -0.234375 31.449219 -0.421875 L 31.449219 -36.964844 C 31.449219 -37.152344 31.261719 -37.382812 30.9375 -37.382812 Z M 30.9375 -37.382812 "/></g></g></g><g fill="#111827" fill-opacity="1"><g transform="translate(312.716577, 45.268)"><g><path d="M 7.710938 -23.832031 L 7.710938 -0.421875 C 7.710938 -0.234375 7.898438 0 8.222656 0 L 14.253906 0 C 14.578125 0 14.8125 -0.234375 14.8125 -0.421875 L 14.8125 -23.832031 Z M 0.515625 -30.980469 L 21.964844 -30.980469 C 22.289062 -30.980469 22.476562 -31.167969 22.476562 -31.402344 L 22.476562 -36.964844 C 22.476562 -37.152344 22.289062 -37.382812 21.964844 -37.382812 L 0.515625 -37.382812 C 0.234375 -37.382812 0 -37.152344 0 -36.964844 L 0 -31.402344 C 0 -31.167969 0.234375 -30.980469 0.515625 -30.980469 Z M 0.515625 -30.980469 "/></g></g></g><g fill="#111827" fill-opacity="1"><g transform="translate(336.313783, 45.268)"><g><path d="M 21.496094 -18.597656 C 21.496094 -20.5625 19.953125 -22.148438 17.992188 -22.148438 C 16.027344 -22.148438 14.488281 -20.5625 14.488281 -18.597656 C 14.488281 -16.683594 16.027344 -15.09375 17.992188 -15.09375 C 19.953125 -15.09375 21.496094 -16.683594 21.496094 -18.597656 Z M 35.984375 -18.738281 C 35.984375 -28.039062 29.953125 -37.382812 18.039062 -37.382812 C 5.933594 -37.382812 0 -28.039062 0 -18.738281 C 0 -9.394531 5.933594 0 18.039062 0 C 29.953125 0 35.984375 -9.394531 35.984375 -18.738281 Z M 28.972656 -18.597656 C 28.972656 -12.570312 25.28125 -6.542969 18.039062 -6.542969 C 10.703125 -6.542969 7.054688 -12.570312 7.054688 -18.597656 C 7.054688 -24.71875 10.703125 -30.796875 18.039062 -30.796875 C 25.28125 -30.796875 28.972656 -24.71875 28.972656 -18.597656 Z M 28.972656 -18.597656 "/></g></g></g><g fill="#111827" fill-opacity="1"><g transform="translate(82.919795, 63.949995)"><g><path d="M 2.546875 -6.890625 L 5.109375 -6.890625 L 5.109375 -5.1875 L 2.546875 -5.1875 L 2.546875 -1.703125 L 5.78125 -1.703125 L 5.78125 0 L 0.6875 0 L 0.6875 -11.90625 L 5.78125 -11.90625 L 5.78125 -10.203125 L 2.546875 -10.203125 Z M 2.546875 -6.890625 "/></g></g></g><g fill="#111827" fill-opacity="1"><g transform="translate(92.572908, 63.949995)"><g><path d="M 6.921875 -11.90625 L 4.96875 -6.125 L 7.0625 0 L 5.078125 0 L 3.546875 -4.703125 L 2 0 L 0.25 0 L 2.34375 -6.125 L 0.390625 -11.90625 L 2.328125 -11.90625 L 3.734375 -7.515625 L 5.1875 -11.90625 Z M 6.921875 -11.90625 "/></g></g></g><g fill="#111827" fill-opacity="1"><g transform="translate(103.279542, 63.949995)"><g><path d="M 3.4375 -11.90625 C 4.375 -11.90625 5.070312 -11.65625 5.53125 -11.15625 C 5.988281 -10.65625 6.21875 -9.921875 6.21875 -8.953125 L 6.21875 -7.40625 C 6.21875 -6.445312 5.988281 -5.71875 5.53125 -5.21875 C 5.070312 -4.71875 4.375 -4.46875 3.4375 -4.46875 L 2.546875 -4.46875 L 2.546875 0 L 0.6875 0 L 0.6875 -11.90625 Z M 2.546875 -10.203125 L 2.546875 -6.171875 L 3.4375 -6.171875 C 3.726562 -6.171875 3.953125 -6.25 4.109375 -6.40625 C 4.273438 -6.5625 4.359375 -6.859375 4.359375 -7.296875 L 4.359375 -9.078125 C 4.359375 -9.503906 4.273438 -9.796875 4.109375 -9.953125 C 3.953125 -10.117188 3.726562 -10.203125 3.4375 -10.203125 Z M 2.546875 -10.203125 "/></g></g></g><g fill="#111827" fill-opacity="1"><g transform="translate(113.085583, 63.949995)"><g><path d="M 2.546875 -6.890625 L 5.109375 -6.890625 L 5.109375 -5.1875 L 2.546875 -5.1875 L 2.546875 -1.703125 L 5.78125 -1.703125 L 5.78125 0 L 0.6875 0 L 0.6875 -11.90625 L 5.78125 -11.90625 L 5.78125 -10.203125 L 2.546875 -10.203125 Z M 2.546875 -6.890625 "/></g></g></g><g fill="#111827" fill-opacity="1"><g transform="translate(122.738696, 63.949995)"><g><path d="M 4.59375 0 C 4.570312 -0.0820312 4.546875 -0.15625 4.515625 -0.21875 C 4.492188 -0.289062 4.472656 -0.375 4.453125 -0.46875 C 4.441406 -0.570312 4.429688 -0.703125 4.421875 -0.859375 C 4.421875 -1.023438 4.421875 -1.226562 4.421875 -1.46875 L 4.421875 -3.328125 C 4.421875 -3.890625 4.320312 -4.28125 4.125 -4.5 C 3.9375 -4.726562 3.628906 -4.84375 3.203125 -4.84375 L 2.546875 -4.84375 L 2.546875 0 L 0.6875 0 L 0.6875 -11.90625 L 3.5 -11.90625 C 4.476562 -11.90625 5.179688 -11.675781 5.609375 -11.21875 C 6.046875 -10.769531 6.265625 -10.082031 6.265625 -9.15625 L 6.265625 -8.234375 C 6.265625 -7.003906 5.859375 -6.195312 5.046875 -5.8125 C 5.523438 -5.625 5.851562 -5.3125 6.03125 -4.875 C 6.207031 -4.4375 6.296875 -3.90625 6.296875 -3.28125 L 6.296875 -1.4375 C 6.296875 -1.144531 6.304688 -0.890625 6.328125 -0.671875 C 6.347656 -0.453125 6.40625 -0.226562 6.5 0 Z M 2.546875 -10.203125 L 2.546875 -6.546875 L 3.28125 -6.546875 C 3.632812 -6.546875 3.910156 -6.632812 4.109375 -6.8125 C 4.304688 -7 4.40625 -7.328125 4.40625 -7.796875 L 4.40625 -8.96875 C 4.40625 -9.40625 4.328125 -9.71875 4.171875 -9.90625 C 4.015625 -10.101562 3.773438 -10.203125 3.453125 -10.203125 Z M 2.546875 -10.203125 "/></g></g></g><g fill="#111827" fill-opacity="1"><g transform="translate(132.969542, 63.949995)"><g><path d="M 0.6875 -11.90625 L 2.546875 -11.90625 L 2.546875 0 L 0.6875 0 Z M 0.6875 -11.90625 "/></g></g></g><g fill="#111827" fill-opacity="1"><g transform="translate(139.598051, 63.949995)"><g><path d="M 2.546875 -6.890625 L 5.109375 -6.890625 L 5.109375 -5.1875 L 2.546875 -5.1875 L 2.546875 -1.703125 L 5.78125 -1.703125 L 5.78125 0 L 0.6875 0 L 0.6875 -11.90625 L 5.78125 -11.90625 L 5.78125 -10.203125 L 2.546875 -10.203125 Z M 2.546875 -6.890625 "/></g></g></g><g fill="#111827" fill-opacity="1"><g transform="translate(149.251164, 63.949995)"><g><path d="M 2.34375 -8.625 L 2.34375 0 L 0.65625 0 L 0.65625 -11.90625 L 3.015625 -11.90625 L 4.9375 -4.78125 L 4.9375 -11.90625 L 6.59375 -11.90625 L 6.59375 0 L 4.671875 0 Z M 2.34375 -8.625 "/></g></g></g><g fill="#111827" fill-opacity="1"><g transform="translate(159.906815, 63.949995)"><g><path d="M 6.109375 -4.4375 L 6.109375 -2.859375 C 6.109375 -1.890625 5.867188 -1.144531 5.390625 -0.625 C 4.921875 -0.113281 4.226562 0.140625 3.3125 0.140625 C 2.394531 0.140625 1.703125 -0.113281 1.234375 -0.625 C 0.765625 -1.144531 0.53125 -1.890625 0.53125 -2.859375 L 0.53125 -9.046875 C 0.53125 -10.003906 0.765625 -10.738281 1.234375 -11.25 C 1.703125 -11.769531 2.394531 -12.03125 3.3125 -12.03125 C 4.226562 -12.03125 4.921875 -11.769531 5.390625 -11.25 C 5.867188 -10.738281 6.109375 -10.003906 6.109375 -9.046875 L 6.109375 -7.890625 L 4.328125 -7.890625 L 4.328125 -9.15625 C 4.328125 -9.59375 4.238281 -9.898438 4.0625 -10.078125 C 3.894531 -10.253906 3.660156 -10.34375 3.359375 -10.34375 C 3.066406 -10.34375 2.832031 -10.253906 2.65625 -10.078125 C 2.476562 -9.898438 2.390625 -9.59375 2.390625 -9.15625 L 2.390625 -2.734375 C 2.390625 -2.304688 2.476562 -2.003906 2.65625 -1.828125 C 2.832031 -1.660156 3.066406 -1.578125 3.359375 -1.578125 C 3.660156 -1.578125 3.894531 -1.660156 4.0625 -1.828125 C 4.238281 -2.003906 4.328125 -2.304688 4.328125 -2.734375 L 4.328125 -4.4375 Z M 6.109375 -4.4375 "/></g></g></g><g fill="#111827" fill-opacity="1"><g transform="translate(169.865794, 63.949995)"><g><path d="M 2.546875 -6.890625 L 5.109375 -6.890625 L 5.109375 -5.1875 L 2.546875 -5.1875 L 2.546875 -1.703125 L 5.78125 -1.703125 L 5.78125 0 L 0.6875 0 L 0.6875 -11.90625 L 5.78125 -11.90625 L 5.78125 -10.203125 L 2.546875 -10.203125 Z M 2.546875 -6.890625 "/></g></g></g><g fill="#111827" fill-opacity="1"><g transform="translate(179.518908, 63.949995)"><g/></g></g><g fill="#111827" fill-opacity="1"><g transform="translate(185.552702, 63.949995)"><g><path d="M 0.140625 -11.90625 L 5.921875 -11.90625 L 5.921875 -10.203125 L 3.96875 -10.203125 L 3.96875 0 L 2.09375 0 L 2.09375 -10.203125 L 0.140625 -10.203125 Z M 0.140625 -11.90625 "/></g></g></g><g fill="#111827" fill-opacity="1"><g transform="translate(195.001916, 63.949995)"><g><path d="M 2.546875 0 L 0.6875 0 L 0.6875 -11.90625 L 2.546875 -11.90625 L 2.546875 -6.796875 L 4.671875 -6.796875 L 4.671875 -11.90625 L 6.578125 -11.90625 L 6.578125 0 L 4.671875 0 L 4.671875 -5.09375 L 2.546875 -5.09375 Z M 2.546875 0 "/></g></g></g><g fill="#111827" fill-opacity="1"><g transform="translate(205.657566, 63.949995)"><g><path d="M 2.546875 -6.890625 L 5.109375 -6.890625 L 5.109375 -5.1875 L 2.546875 -5.1875 L 2.546875 -1.703125 L 5.78125 -1.703125 L 5.78125 0 L 0.6875 0 L 0.6875 -11.90625 L 5.78125 -11.90625 L 5.78125 -10.203125 L 2.546875 -10.203125 Z M 2.546875 -6.890625 "/></g></g></g><g fill="#111827" fill-opacity="1"><g transform="translate(215.31068, 63.949995)"><g/></g></g><g fill="#111827" fill-opacity="1"><g transform="translate(221.344474, 63.949995)"><g><path d="M 4.640625 -3.453125 L 5.921875 -11.90625 L 8.515625 -11.90625 L 8.515625 0 L 6.75 0 L 6.75 -8.53125 L 5.453125 0 L 3.6875 0 L 2.296875 -8.421875 L 2.296875 0 L 0.65625 0 L 0.65625 -11.90625 L 3.265625 -11.90625 Z M 4.640625 -3.453125 "/></g></g></g><g fill="#111827" fill-opacity="1"><g transform="translate(233.937231, 63.949995)"><g><path d="M 6.734375 0 L 4.84375 0 L 4.515625 -2.15625 L 2.234375 -2.15625 L 1.90625 0 L 0.1875 0 L 2.09375 -11.90625 L 4.828125 -11.90625 Z M 2.46875 -3.78125 L 4.265625 -3.78125 L 3.359375 -9.796875 Z M 2.46875 -3.78125 "/></g></g></g><g fill="#111827" fill-opacity="1"><g transform="translate(244.253037, 63.949995)"><g><path d="M 3.484375 -6.625 L 6.109375 -6.625 L 6.109375 -2.859375 C 6.109375 -1.890625 5.867188 -1.144531 5.390625 -0.625 C 4.921875 -0.113281 4.226562 0.140625 3.3125 0.140625 C 2.394531 0.140625 1.703125 -0.113281 1.234375 -0.625 C 0.765625 -1.144531 0.53125 -1.890625 0.53125 -2.859375 L 0.53125 -9.046875 C 0.53125 -10.003906 0.765625 -10.738281 1.234375 -11.25 C 1.703125 -11.769531 2.394531 -12.03125 3.3125 -12.03125 C 4.226562 -12.03125 4.921875 -11.769531 5.390625 -11.25 C 5.867188 -10.738281 6.109375 -10.003906 6.109375 -9.046875 L 6.109375 -7.890625 L 4.328125 -7.890625 L 4.328125 -9.15625 C 4.328125 -9.59375 4.238281 -9.898438 4.0625 -10.078125 C 3.894531 -10.253906 3.660156 -10.34375 3.359375 -10.34375 C 3.066406 -10.34375 2.832031 -10.253906 2.65625 -10.078125 C 2.476562 -9.898438 2.390625 -9.59375 2.390625 -9.15625 L 2.390625 -2.734375 C 2.390625 -2.304688 2.476562 -2.003906 2.65625 -1.828125 C 2.832031 -1.660156 3.066406 -1.578125 3.359375 -1.578125 C 3.660156 -1.578125 3.894531 -1.660156 4.0625 -1.828125 C 4.238281 -2.003906 4.328125 -2.304688 4.328125 -2.734375 L 4.328125 -4.9375 L 3.484375 -4.9375 Z M 3.484375 -6.625 "/></g></g></g><g fill="#111827" fill-opacity="1"><g transform="translate(254.279983, 63.949995)"><g><path d="M 0.6875 -11.90625 L 2.546875 -11.90625 L 2.546875 0 L 0.6875 0 Z M 0.6875 -11.90625 "/></g></g></g><g fill="#111827" fill-opacity="1"><g transform="translate(260.908492, 63.949995)"><g><path d="M 6.109375 -4.4375 L 6.109375 -2.859375 C 6.109375 -1.890625 5.867188 -1.144531 5.390625 -0.625 C 4.921875 -0.113281 4.226562 0.140625 3.3125 0.140625 C 2.394531 0.140625 1.703125 -0.113281 1.234375 -0.625 C 0.765625 -1.144531 0.53125 -1.890625 0.53125 -2.859375 L 0.53125 -9.046875 C 0.53125 -10.003906 0.765625 -10.738281 1.234375 -11.25 C 1.703125 -11.769531 2.394531 -12.03125 3.3125 -12.03125 C 4.226562 -12.03125 4.921875 -11.769531 5.390625 -11.25 C 5.867188 -10.738281 6.109375 -10.003906 6.109375 -9.046875 L 6.109375 -7.890625 L 4.328125 -7.890625 L 4.328125 -9.15625 C 4.328125 -9.59375 4.238281 -9.898438 4.0625 -10.078125 C 3.894531 -10.253906 3.660156 -10.34375 3.359375 -10.34375 C 3.066406 -10.34375 2.832031 -10.253906 2.65625 -10.078125 C 2.476562 -9.898438 2.390625 -9.59375 2.390625 -9.15625 L 2.390625 -2.734375 C 2.390625 -2.304688 2.476562 -2.003906 2.65625 -1.828125 C 2.832031 -1.660156 3.066406 -1.578125 3.359375 -1.578125 C 3.660156 -1.578125 3.894531 -1.660156 4.0625 -1.828125 C 4.238281 -2.003906 4.328125 -2.304688 4.328125 -2.734375 L 4.328125 -4.4375 Z M 6.109375 -4.4375 "/></g></g></g><g fill="#111827" fill-opacity="1"><g transform="translate(270.867472, 63.949995)"><g/></g></g><g fill="#111827" fill-opacity="1"><g transform="translate(276.901254, 63.949995)"><g><path d="M 2.390625 -2.734375 C 2.390625 -2.304688 2.476562 -2.003906 2.65625 -1.828125 C 2.832031 -1.648438 3.066406 -1.5625 3.359375 -1.5625 C 3.660156 -1.5625 3.894531 -1.648438 4.0625 -1.828125 C 4.238281 -2.003906 4.328125 -2.304688 4.328125 -2.734375 L 4.328125 -9.15625 C 4.328125 -9.59375 4.238281 -9.898438 4.0625 -10.078125 C 3.894531 -10.253906 3.660156 -10.34375 3.359375 -10.34375 C 3.066406 -10.34375 2.832031 -10.253906 2.65625 -10.078125 C 2.476562 -9.898438 2.390625 -9.59375 2.390625 -9.15625 Z M 0.53125 -9.046875 C 0.53125 -10.003906 0.769531 -10.738281 1.25 -11.25 C 1.738281 -11.769531 2.441406 -12.03125 3.359375 -12.03125 C 4.285156 -12.03125 4.988281 -11.769531 5.46875 -11.25 C 5.957031 -10.738281 6.203125 -10.003906 6.203125 -9.046875 L 6.203125 -2.859375 C 6.203125 -1.890625 5.957031 -1.144531 5.46875 -0.625 C 4.988281 -0.113281 4.285156 0.140625 3.359375 0.140625 C 2.441406 0.140625 1.738281 -0.113281 1.25 -0.625 C 0.769531 -1.144531 0.53125 -1.890625 0.53125 -2.859375 Z M 0.53125 -9.046875 "/></g></g></g><g fill="#111827" fill-opacity="1"><g transform="translate(287.030145, 63.949995)"><g><path d="M 2.546875 -6.609375 L 4.96875 -6.609375 L 4.96875 -4.90625 L 2.546875 -4.90625 L 2.546875 0 L 0.6875 0 L 0.6875 -11.90625 L 5.625 -11.90625 L 5.625 -10.203125 L 2.546875 -10.203125 Z M 2.546875 -6.609375 "/></g></g></g><g fill="#111827" fill-opacity="1"><g transform="translate(296.275459, 63.949995)"><g/></g></g><g fill="#111827" fill-opacity="1"><g transform="translate(302.309242, 63.949995)"><g><path d="M 4.640625 -3.453125 L 5.921875 -11.90625 L 8.515625 -11.90625 L 8.515625 0 L 6.75 0 L 6.75 -8.53125 L 5.453125 0 L 3.6875 0 L 2.296875 -8.421875 L 2.296875 0 L 0.65625 0 L 0.65625 -11.90625 L 3.265625 -11.90625 Z M 4.640625 -3.453125 "/></g></g></g><g fill="#111827" fill-opacity="1"><g transform="translate(314.901999, 63.949995)"><g><path d="M 2.390625 -2.734375 C 2.390625 -2.304688 2.476562 -2.003906 2.65625 -1.828125 C 2.832031 -1.648438 3.066406 -1.5625 3.359375 -1.5625 C 3.660156 -1.5625 3.894531 -1.648438 4.0625 -1.828125 C 4.238281 -2.003906 4.328125 -2.304688 4.328125 -2.734375 L 4.328125 -9.15625 C 4.328125 -9.59375 4.238281 -9.898438 4.0625 -10.078125 C 3.894531 -10.253906 3.660156 -10.34375 3.359375 -10.34375 C 3.066406 -10.34375 2.832031 -10.253906 2.65625 -10.078125 C 2.476562 -9.898438 2.390625 -9.59375 2.390625 -9.15625 Z M 0.53125 -9.046875 C 0.53125 -10.003906 0.769531 -10.738281 1.25 -11.25 C 1.738281 -11.769531 2.441406 -12.03125 3.359375 -12.03125 C 4.285156 -12.03125 4.988281 -11.769531 5.46875 -11.25 C 5.957031 -10.738281 6.203125 -10.003906 6.203125 -9.046875 L 6.203125 -2.859375 C 6.203125 -1.890625 5.957031 -1.144531 5.46875 -0.625 C 4.988281 -0.113281 4.285156 0.140625 3.359375 0.140625 C 2.441406 0.140625 1.738281 -0.113281 1.25 -0.625 C 0.769531 -1.144531 0.53125 -1.890625 0.53125 -2.859375 Z M 0.53125 -9.046875 "/></g></g></g><g fill="#111827" fill-opacity="1"><g transform="translate(325.030889, 63.949995)"><g><path d="M 4.59375 0 C 4.570312 -0.0820312 4.546875 -0.15625 4.515625 -0.21875 C 4.492188 -0.289062 4.472656 -0.375 4.453125 -0.46875 C 4.441406 -0.570312 4.429688 -0.703125 4.421875 -0.859375 C 4.421875 -1.023438 4.421875 -1.226562 4.421875 -1.46875 L 4.421875 -3.328125 C 4.421875 -3.890625 4.320312 -4.28125 4.125 -4.5 C 3.9375 -4.726562 3.628906 -4.84375 3.203125 -4.84375 L 2.546875 -4.84375 L 2.546875 0 L 0.6875 0 L 0.6875 -11.90625 L 3.5 -11.90625 C 4.476562 -11.90625 5.179688 -11.675781 5.609375 -11.21875 C 6.046875 -10.769531 6.265625 -10.082031 6.265625 -9.15625 L 6.265625 -8.234375 C 6.265625 -7.003906 5.859375 -6.195312 5.046875 -5.8125 C 5.523438 -5.625 5.851562 -5.3125 6.03125 -4.875 C 6.207031 -4.4375 6.296875 -3.90625 6.296875 -3.28125 L 6.296875 -1.4375 C 6.296875 -1.144531 6.304688 -0.890625 6.328125 -0.671875 C 6.347656 -0.453125 6.40625 -0.226562 6.5 0 Z M 2.546875 -10.203125 L 2.546875 -6.546875 L 3.28125 -6.546875 C 3.632812 -6.546875 3.910156 -6.632812 4.109375 -6.8125 C 4.304688 -7 4.40625 -7.328125 4.40625 -7.796875 L 4.40625 -8.96875 C 4.40625 -9.40625 4.328125 -9.71875 4.171875 -9.90625 C 4.015625 -10.101562 3.773438 -10.203125 3.453125 -10.203125 Z M 2.546875 -10.203125 "/></g></g></g><g fill="#111827" fill-opacity="1"><g transform="translate(335.261723, 63.949995)"><g><path d="M 2.390625 -2.734375 C 2.390625 -2.304688 2.476562 -2.003906 2.65625 -1.828125 C 2.832031 -1.648438 3.066406 -1.5625 3.359375 -1.5625 C 3.660156 -1.5625 3.894531 -1.648438 4.0625 -1.828125 C 4.238281 -2.003906 4.328125 -2.304688 4.328125 -2.734375 L 4.328125 -9.15625 C 4.328125 -9.59375 4.238281 -9.898438 4.0625 -10.078125 C 3.894531 -10.253906 3.660156 -10.34375 3.359375 -10.34375 C 3.066406 -10.34375 2.832031 -10.253906 2.65625 -10.078125 C 2.476562 -9.898438 2.390625 -9.59375 2.390625 -9.15625 Z M 0.53125 -9.046875 C 0.53125 -10.003906 0.769531 -10.738281 1.25 -11.25 C 1.738281 -11.769531 2.441406 -12.03125 3.359375 -12.03125 C 4.285156 -12.03125 4.988281 -11.769531 5.46875 -11.25 C 5.957031 -10.738281 6.203125 -10.003906 6.203125 -9.046875 L 6.203125 -2.859375 C 6.203125 -1.890625 5.957031 -1.144531 5.46875 -0.625 C 4.988281 -0.113281 4.285156 0.140625 3.359375 0.140625 C 2.441406 0.140625 1.738281 -0.113281 1.25 -0.625 C 0.769531 -1.144531 0.53125 -1.890625 0.53125 -2.859375 Z M 0.53125 -9.046875 "/></g></g></g><g fill="#111827" fill-opacity="1"><g transform="translate(345.390613, 63.949995)"><g><path d="M 6.109375 -4.4375 L 6.109375 -2.859375 C 6.109375 -1.890625 5.867188 -1.144531 5.390625 -0.625 C 4.921875 -0.113281 4.226562 0.140625 3.3125 0.140625 C 2.394531 0.140625 1.703125 -0.113281 1.234375 -0.625 C 0.765625 -1.144531 0.53125 -1.890625 0.53125 -2.859375 L 0.53125 -9.046875 C 0.53125 -10.003906 0.765625 -10.738281 1.234375 -11.25 C 1.703125 -11.769531 2.394531 -12.03125 3.3125 -12.03125 C 4.226562 -12.03125 4.921875 -11.769531 5.390625 -11.25 C 5.867188 -10.738281 6.109375 -10.003906 6.109375 -9.046875 L 6.109375 -7.890625 L 4.328125 -7.890625 L 4.328125 -9.15625 C 4.328125 -9.59375 4.238281 -9.898438 4.0625 -10.078125 C 3.894531 -10.253906 3.660156 -10.34375 3.359375 -10.34375 C 3.066406 -10.34375 2.832031 -10.253906 2.65625 -10.078125 C 2.476562 -9.898438 2.390625 -9.59375 2.390625 -9.15625 L 2.390625 -2.734375 C 2.390625 -2.304688 2.476562 -2.003906 2.65625 -1.828125 C 2.832031 -1.660156 3.066406 -1.578125 3.359375 -1.578125 C 3.660156 -1.578125 3.894531 -1.660156 4.0625 -1.828125 C 4.238281 -2.003906 4.328125 -2.304688 4.328125 -2.734375 L 4.328125 -4.4375 Z M 6.109375 -4.4375 "/></g></g></g><g fill="#111827" fill-opacity="1"><g transform="translate(355.349582, 63.949995)"><g><path d="M 6.109375 -4.4375 L 6.109375 -2.859375 C 6.109375 -1.890625 5.867188 -1.144531 5.390625 -0.625 C 4.921875 -0.113281 4.226562 0.140625 3.3125 0.140625 C 2.394531 0.140625 1.703125 -0.113281 1.234375 -0.625 C 0.765625 -1.144531 0.53125 -1.890625 0.53125 -2.859375 L 0.53125 -9.046875 C 0.53125 -10.003906 0.765625 -10.738281 1.234375 -11.25 C 1.703125 -11.769531 2.394531 -12.03125 3.3125 -12.03125 C 4.226562 -12.03125 4.921875 -11.769531 5.390625 -11.25 C 5.867188 -10.738281 6.109375 -10.003906 6.109375 -9.046875 L 6.109375 -7.890625 L 4.328125 -7.890625 L 4.328125 -9.15625 C 4.328125 -9.59375 4.238281 -9.898438 4.0625 -10.078125 C 3.894531 -10.253906 3.660156 -10.34375 3.359375 -10.34375 C 3.066406 -10.34375 2.832031 -10.253906 2.65625 -10.078125 C 2.476562 -9.898438 2.390625 -9.59375 2.390625 -9.15625 L 2.390625 -2.734375 C 2.390625 -2.304688 2.476562 -2.003906 2.65625 -1.828125 C 2.832031 -1.660156 3.066406 -1.578125 3.359375 -1.578125 C 3.660156 -1.578125 3.894531 -1.660156 4.0625 -1.828125 C 4.238281 -2.003906 4.328125 -2.304688 4.328125 -2.734375 L 4.328125 -4.4375 Z M 6.109375 -4.4375 "/></g></g></g><g fill="#111827" fill-opacity="1"><g transform="translate(365.30855, 63.949995)"><g><path d="M 2.390625 -2.734375 C 2.390625 -2.304688 2.476562 -2.003906 2.65625 -1.828125 C 2.832031 -1.648438 3.066406 -1.5625 3.359375 -1.5625 C 3.660156 -1.5625 3.894531 -1.648438 4.0625 -1.828125 C 4.238281 -2.003906 4.328125 -2.304688 4.328125 -2.734375 L 4.328125 -9.15625 C 4.328125 -9.59375 4.238281 -9.898438 4.0625 -10.078125 C 3.894531 -10.253906 3.660156 -10.34375 3.359375 -10.34375 C 3.066406 -10.34375 2.832031 -10.253906 2.65625 -10.078125 C 2.476562 -9.898438 2.390625 -9.59375 2.390625 -9.15625 Z M 0.53125 -9.046875 C 0.53125 -10.003906 0.769531 -10.738281 1.25 -11.25 C 1.738281 -11.769531 2.441406 -12.03125 3.359375 -12.03125 C 4.285156 -12.03125 4.988281 -11.769531 5.46875 -11.25 C 5.957031 -10.738281 6.203125 -10.003906 6.203125 -9.046875 L 6.203125 -2.859375 C 6.203125 -1.890625 5.957031 -1.144531 5.46875 -0.625 C 4.988281 -0.113281 4.285156 0.140625 3.359375 0.140625 C 2.441406 0.140625 1.738281 -0.113281 1.25 -0.625 C 0.769531 -1.144531 0.53125 -1.890625 0.53125 -2.859375 Z M 0.53125 -9.046875 "/></g></g></g><g clip-path="url(#2dbd8a1a67)"><g clip-path="url(#6e465a04e3)"><path fill="#111827" d="M 0 0 L 0 75 L 75 75 L 75 0 Z M 0 0 " fill-opacity="1" fill-rule="nonzero"/></g></g></svg>