<svg xmlns="http://www.w3.org/2000/svg" xmlns:xlink="http://www.w3.org/1999/xlink" width="500" zoomAndPan="magnify" viewBox="0 0 375 74.999997" height="100" preserveAspectRatio="xMidYMid meet" version="1.0"><defs><filter x="0%" y="0%" width="100%" height="100%" id="a7240f2cba"><feColorMatrix values="0 0 0 0 1 0 0 0 0 1 0 0 0 0 1 0 0 0 1 0" color-interpolation-filters="sRGB"/></filter><g/><mask id="748499fa19"><g filter="url(#a7240f2cba)"><rect x="-37.5" width="450" fill="#000000" y="-7.5" height="89.999996" fill-opacity="0.2784"/></g></mask><clipPath id="eb837fb177"><path d="M 0 0 L 75 0 L 75 75 L 0 75 Z M 0 0 " clip-rule="nonzero"/></clipPath><clipPath id="36db941bad"><rect x="0" width="76" y="0" height="75"/></clipPath></defs><g mask="url(#748499fa19)"><g transform="matrix(1, 0, 0, 1, 0, -0.000000000000001893)"><g clip-path="url(#36db941bad)"><g clip-path="url(#eb837fb177)"><path fill="#111827" d="M 74.976562 34.617188 C 74.976562 34.589844 74.972656 34.5625 74.964844 34.539062 C 74.964844 34.535156 74.964844 34.535156 74.964844 34.535156 L 67.488281 14.976562 C 67.488281 14.972656 67.484375 14.972656 67.484375 14.96875 C 67.472656 14.9375 67.453125 14.910156 67.429688 14.890625 L 50.988281 1.863281 C 50.964844 1.84375 50.933594 1.828125 50.898438 1.820312 C 50.894531 1.820312 50.894531 1.820312 50.890625 1.820312 L 37.472656 0.00390625 C 37.445312 0 37.417969 0 37.394531 0.0078125 L 31 1.820312 L 30.816406 1.820312 C 30.78125 1.820312 30.746094 1.828125 30.714844 1.847656 L 30.550781 1.945312 L 14.8125 6.402344 C 14.804688 6.402344 14.804688 6.40625 14.796875 6.410156 C 14.777344 6.417969 14.757812 6.429688 14.742188 6.441406 C 14.734375 6.449219 14.726562 6.453125 14.71875 6.460938 C 14.714844 6.464844 14.710938 6.464844 14.710938 6.472656 L 0.925781 24.300781 C 0.921875 24.304688 0.921875 24.3125 0.917969 24.316406 C 0.910156 24.324219 0.90625 24.332031 0.902344 24.339844 C 0.898438 24.347656 0.898438 24.351562 0.898438 24.359375 C 0.894531 24.367188 0.890625 24.378906 0.890625 24.390625 C 0.890625 24.394531 0.886719 24.402344 0.886719 24.410156 L 0.015625 40.089844 C 0.015625 40.101562 0.015625 40.117188 0.0195312 40.128906 L 1.289062 48.058594 C 1.292969 48.070312 1.296875 48.078125 1.300781 48.089844 C 1.300781 48.097656 1.300781 48.101562 1.304688 48.109375 C 1.304688 48.109375 1.308594 48.113281 1.308594 48.113281 C 1.308594 48.117188 1.308594 48.117188 1.308594 48.121094 L 7.726562 60.300781 C 7.738281 60.320312 7.753906 60.339844 7.769531 60.355469 L 15.296875 66.984375 C 15.308594 67 15.324219 67.011719 15.339844 67.019531 L 24.042969 72.867188 C 24.066406 72.882812 24.09375 72.890625 24.121094 72.894531 L 37.777344 75.011719 C 37.78125 75.011719 37.78125 75.011719 37.78125 75.011719 C 37.792969 75.015625 37.800781 75.015625 37.8125 75.015625 C 37.824219 75.015625 37.839844 75.015625 37.851562 75.011719 C 37.851562 75.011719 37.855469 75.011719 37.855469 75.011719 C 37.855469 75.007812 37.855469 75.007812 37.859375 75.007812 C 37.859375 75.011719 37.859375 75.007812 37.859375 75.007812 C 37.863281 75.007812 37.863281 75.007812 37.863281 75.007812 C 37.863281 75.007812 37.863281 75.007812 37.867188 75.007812 L 60.179688 68.507812 C 60.1875 68.507812 60.191406 68.5 60.199219 68.496094 C 60.222656 68.484375 60.238281 68.472656 60.253906 68.457031 C 60.261719 68.449219 60.273438 68.449219 60.28125 68.441406 L 73.855469 50.601562 C 73.875 50.574219 73.886719 50.539062 73.890625 50.507812 C 73.890625 50.503906 73.894531 50.5 73.894531 50.496094 Z M 73.511719 50.328125 L 67.640625 51.808594 L 74.503906 35.746094 Z M 49.6875 48.054688 L 28.054688 40.46875 L 44.371094 28.761719 Z M 44.371094 28.128906 L 28.101562 17.523438 L 49.257812 11.492188 Z M 44.140625 28.445312 L 27.832031 40.144531 L 27.832031 17.816406 Z M 27.4375 40.214844 L 8.929688 31.164062 L 27.4375 17.835938 Z M 31.445312 61.914062 L 13.804688 52.0625 L 27.503906 40.890625 Z M 27.890625 40.824219 L 49.570312 48.425781 L 31.851562 61.941406 Z M 49.808594 48.738281 L 50.949219 64.898438 L 32.207031 62.164062 Z M 50.058594 47.917969 L 44.753906 28.660156 L 62.800781 30.457031 Z M 63.054688 30.777344 L 67.058594 51.839844 L 50.316406 48.234375 Z M 67.378906 51.421875 L 63.421875 30.601562 L 74.519531 34.714844 Z M 63.082031 29.84375 L 50 11.507812 L 67.0625 15.191406 Z M 62.753906 30.058594 L 44.742188 28.265625 L 49.621094 11.648438 Z M 27.894531 17.175781 L 30.957031 2.300781 L 49.003906 11.160156 Z M 27.488281 17.199219 L 13.644531 12.585938 L 30.53125 2.414062 Z M 27.210938 17.519531 L 8.871094 30.722656 L 13.320312 12.890625 Z M 8.441406 30.828125 L 1.367188 24.414062 L 12.824219 13.261719 Z M 13.003906 12.535156 L 2.941406 22.332031 L 14.40625 7.503906 Z M 8.316406 31.246094 L 1.664062 47.089844 L 1.285156 24.867188 Z M 8.496094 31.828125 L 13.183594 51.792969 L 1.746094 47.910156 Z M 8.835938 31.550781 L 27.273438 40.570312 L 13.578125 51.742188 Z M 31.207031 62.230469 L 15.609375 66.605469 L 13.703125 52.457031 Z M 31.613281 62.523438 L 37.425781 74.472656 L 16.089844 66.878906 Z M 37.886719 74.523438 L 32.054688 62.535156 L 50.660156 65.25 Z M 51.332031 64.738281 L 50.195312 48.609375 L 66.863281 52.199219 Z M 66.796875 52.753906 L 60.019531 68.074219 L 51.558594 65.058594 Z M 67.445312 52.261719 L 73.203125 50.808594 L 60.980469 66.871094 Z M 63.398438 30.175781 L 67.335938 15.679688 L 74.441406 34.269531 Z M 51.011719 2.378906 L 66.523438 14.675781 L 49.765625 11.054688 Z M 37.460938 0.394531 L 47.960938 1.820312 L 32.4375 1.820312 Z M 50.636719 2.210938 L 49.390625 10.914062 L 31.660156 2.210938 Z M 13.503906 12.214844 L 15.023438 6.75 L 29.277344 2.714844 Z M 0.410156 40.089844 L 0.976562 29.851562 L 1.238281 45.265625 Z M 8.058594 60.085938 L 2.851562 50.203125 L 14.179688 65.480469 Z M 2.015625 48.417969 L 13.277344 52.238281 L 15.148438 66.125 Z M 16.847656 67.5625 L 35.792969 74.308594 L 24.226562 72.515625 Z M 51.195312 65.347656 L 59.488281 68.304688 L 38.835938 74.316406 Z M 51.195312 65.347656 " fill-opacity="1" fill-rule="nonzero"/></g></g></g></g><g fill="#111827" fill-opacity="1"><g transform="translate(83.192667, 57.250007)"><g><path d="M 33.460938 -9.019531 L 40.5625 -9.019531 L 40.5625 -36.964844 C 40.5625 -37.152344 40.375 -37.382812 40.046875 -37.382812 L 33.878906 -37.382812 C 33.691406 -37.382812 33.460938 -37.246094 33.367188 -37.105469 L 20.609375 -9.71875 L 7.195312 -37.105469 C 7.148438 -37.246094 6.871094 -37.382812 6.730469 -37.382812 L 0.46875 -37.382812 C 0.140625 -37.382812 0 -37.152344 0 -36.964844 L 0 -0.421875 C 0 -0.234375 0.140625 0 0.46875 0 L 6.636719 0 C 6.917969 0 7.148438 -0.234375 7.148438 -0.421875 L 7.148438 -21.402344 L 17.289062 -1.777344 C 17.335938 -1.636719 17.617188 -1.496094 17.757812 -1.496094 L 23.503906 -1.496094 C 23.644531 -1.496094 23.878906 -1.636719 23.925781 -1.777344 L 33.460938 -20.886719 Z M 33.460938 -9.019531 "/></g></g></g><g fill="#111827" fill-opacity="1"><g transform="translate(125.807853, 57.250007)"><g><path d="M 21.496094 -18.597656 C 21.496094 -20.5625 19.953125 -22.148438 17.992188 -22.148438 C 16.027344 -22.148438 14.488281 -20.5625 14.488281 -18.597656 C 14.488281 -16.683594 16.027344 -15.09375 17.992188 -15.09375 C 19.953125 -15.09375 21.496094 -16.683594 21.496094 -18.597656 Z M 35.984375 -18.738281 C 35.984375 -28.039062 29.953125 -37.382812 18.039062 -37.382812 C 5.933594 -37.382812 0 -28.039062 0 -18.738281 C 0 -9.394531 5.933594 0 18.039062 0 C 29.953125 0 35.984375 -9.394531 35.984375 -18.738281 Z M 28.972656 -18.597656 C 28.972656 -12.570312 25.28125 -6.542969 18.039062 -6.542969 C 10.703125 -6.542969 7.054688 -12.570312 7.054688 -18.597656 C 7.054688 -24.71875 10.703125 -30.796875 18.039062 -30.796875 C 25.28125 -30.796875 28.972656 -24.71875 28.972656 -18.597656 Z M 28.972656 -18.597656 "/></g></g></g><g fill="#111827" fill-opacity="1"><g transform="translate(163.56342, 57.250007)"><g><path d="M 25.515625 -0.609375 C 23.179688 -5.792969 20.65625 -10.933594 18.320312 -16.214844 C 22.058594 -17.570312 25.1875 -20.5625 25.1875 -26.261719 C 25.1875 -37.289062 14.671875 -37.382812 12.570312 -37.382812 L 0.46875 -37.382812 C 0.234375 -37.382812 0 -37.152344 0 -36.964844 L 0 -30.609375 L 12.570312 -30.609375 C 13.691406 -30.609375 18.085938 -30.375 18.085938 -26.261719 C 18.085938 -22.148438 14.113281 -21.964844 12.570312 -21.964844 L 0 -21.964844 L 0 -0.421875 C 0 -0.234375 0.234375 0 0.46875 0 L 6.589844 0 C 6.871094 0 7.101562 -0.234375 7.101562 -0.421875 L 7.101562 -15.09375 L 11.121094 -15.09375 L 17.945312 -0.28125 C 17.992188 -0.140625 18.273438 0 18.410156 0 L 25.09375 0 C 25.46875 0 25.65625 -0.28125 25.515625 -0.609375 Z M 25.515625 -0.609375 "/></g></g></g><g fill="#111827" fill-opacity="1"><g transform="translate(190.431544, 57.250007)"><g><path d="M 21.496094 -18.597656 C 21.496094 -20.5625 19.953125 -22.148438 17.992188 -22.148438 C 16.027344 -22.148438 14.488281 -20.5625 14.488281 -18.597656 C 14.488281 -16.683594 16.027344 -15.09375 17.992188 -15.09375 C 19.953125 -15.09375 21.496094 -16.683594 21.496094 -18.597656 Z M 35.984375 -18.738281 C 35.984375 -28.039062 29.953125 -37.382812 18.039062 -37.382812 C 5.933594 -37.382812 0 -28.039062 0 -18.738281 C 0 -9.394531 5.933594 0 18.039062 0 C 29.953125 0 35.984375 -9.394531 35.984375 -18.738281 Z M 28.972656 -18.597656 C 28.972656 -12.570312 25.28125 -6.542969 18.039062 -6.542969 C 10.703125 -6.542969 7.054688 -12.570312 7.054688 -18.597656 C 7.054688 -24.71875 10.703125 -30.796875 18.039062 -30.796875 C 25.28125 -30.796875 28.972656 -24.71875 28.972656 -18.597656 Z M 28.972656 -18.597656 "/></g></g></g><g fill="#111827" fill-opacity="1"><g transform="translate(228.18711, 57.250007)"><g><path d="M 19.488281 -30.421875 L 14.578125 -16.730469 L 7.289062 -37.105469 C 7.242188 -37.289062 7.054688 -37.382812 6.824219 -37.382812 L 0.46875 -37.382812 C 0.09375 -37.382812 -0.09375 -37.105469 0.046875 -36.824219 L 14.113281 -0.234375 C 14.300781 0.09375 14.859375 0.09375 15 -0.234375 L 26.683594 -30.421875 Z M 19.488281 -30.421875 "/></g></g></g><g fill="#111827" fill-opacity="1"><g transform="translate(256.223423, 57.250007)"><g><path d="M 17.757812 -6.960938 L 7.148438 -6.960938 L 7.148438 -15.375 L 21.824219 -15.375 C 22.105469 -15.375 22.335938 -15.609375 22.335938 -15.796875 L 22.335938 -21.730469 C 22.335938 -21.964844 22.105469 -22.148438 21.824219 -22.148438 L 7.148438 -22.148438 L 7.148438 -30.609375 L 17.757812 -30.609375 L 17.757812 -37.382812 L 0.515625 -37.382812 C 0.234375 -37.382812 0 -37.152344 0 -36.964844 L 0 -0.421875 C 0 -0.234375 0.234375 0 0.515625 0 L 17.757812 0 Z M 17.757812 -6.960938 "/></g></g></g><g fill="#111827" fill-opacity="1"><g transform="translate(279.680468, 57.250007)"><g><path d="M 30.9375 -37.382812 L 24.90625 -37.382812 C 24.582031 -37.382812 24.347656 -37.152344 24.347656 -36.964844 L 24.347656 -12.617188 L 7.101562 -37.246094 C 7.054688 -37.335938 6.777344 -37.382812 6.683594 -37.382812 L 0.46875 -37.382812 C 0.234375 -37.382812 0 -37.152344 0 -36.964844 L 0 -8.972656 L 7.148438 -8.972656 L 7.148438 -24.765625 L 24.347656 -0.140625 C 24.394531 -0.046875 24.671875 0 24.765625 0 L 30.9375 0 C 31.261719 0 31.449219 -0.234375 31.449219 -0.421875 L 31.449219 -36.964844 C 31.449219 -37.152344 31.261719 -37.382812 30.9375 -37.382812 Z M 30.9375 -37.382812 "/></g></g></g><g fill="#111827" fill-opacity="1"><g transform="translate(312.716577, 57.250007)"><g><path d="M 7.710938 -23.832031 L 7.710938 -0.421875 C 7.710938 -0.234375 7.898438 0 8.222656 0 L 14.253906 0 C 14.578125 0 14.8125 -0.234375 14.8125 -0.421875 L 14.8125 -23.832031 Z M 0.515625 -30.980469 L 21.964844 -30.980469 C 22.289062 -30.980469 22.476562 -31.167969 22.476562 -31.402344 L 22.476562 -36.964844 C 22.476562 -37.152344 22.289062 -37.382812 21.964844 -37.382812 L 0.515625 -37.382812 C 0.234375 -37.382812 0 -37.152344 0 -36.964844 L 0 -31.402344 C 0 -31.167969 0.234375 -30.980469 0.515625 -30.980469 Z M 0.515625 -30.980469 "/></g></g></g><g fill="#111827" fill-opacity="1"><g transform="translate(336.313783, 57.250007)"><g><path d="M 21.496094 -18.597656 C 21.496094 -20.5625 19.953125 -22.148438 17.992188 -22.148438 C 16.027344 -22.148438 14.488281 -20.5625 14.488281 -18.597656 C 14.488281 -16.683594 16.027344 -15.09375 17.992188 -15.09375 C 19.953125 -15.09375 21.496094 -16.683594 21.496094 -18.597656 Z M 35.984375 -18.738281 C 35.984375 -28.039062 29.953125 -37.382812 18.039062 -37.382812 C 5.933594 -37.382812 0 -28.039062 0 -18.738281 C 0 -9.394531 5.933594 0 18.039062 0 C 29.953125 0 35.984375 -9.394531 35.984375 -18.738281 Z M 28.972656 -18.597656 C 28.972656 -12.570312 25.28125 -6.542969 18.039062 -6.542969 C 10.703125 -6.542969 7.054688 -12.570312 7.054688 -18.597656 C 7.054688 -24.71875 10.703125 -30.796875 18.039062 -30.796875 C 25.28125 -30.796875 28.972656 -24.71875 28.972656 -18.597656 Z M 28.972656 -18.597656 "/></g></g></g></svg>